<?xml version="1.0" standalone="no"?>
<!DOCTYPE svg PUBLIC "-//W3C//DTD SVG 20010904//EN"
 "http://www.w3.org/TR/2001/REC-SVG-20010904/DTD/svg10.dtd">
<svg version="1.0" xmlns="http://www.w3.org/2000/svg"
 width="512.000000pt" height="506.000000pt" viewBox="0 0 512.000000 506.000000"
 preserveAspectRatio="xMidYMid meet">
<metadata>
Created by potrace 1.16, written by Peter Selinger 2001-2019
</metadata>
<g transform="translate(0.000000,506.000000) scale(0.100000,-0.100000)"
fill="#000000" stroke="none">
<path d="M3490 4731 c0 -24 -23 -43 -44 -35 -9 3 -16 2 -16 -2 0 -5 -18 -29
-41 -54 -22 -24 -48 -58 -56 -75 -9 -16 -34 -57 -57 -90 -22 -33 -52 -82 -66
-110 -13 -27 -27 -52 -30 -55 -13 -11 -162 -214 -167 -227 -3 -7 -10 -13 -15
-13 -6 0 -7 8 -3 18 3 9 11 40 16 67 11 60 29 122 80 276 45 132 47 157 19
187 -40 42 -65 31 -169 -80 -53 -55 -103 -111 -111 -124 -8 -12 -42 -53 -75
-91 -33 -39 -91 -109 -130 -158 -38 -48 -90 -109 -115 -135 -53 -57 -69 -75
-94 -115 -26 -40 -156 -168 -163 -161 -4 3 1 14 9 23 8 10 30 45 48 78 17 33
35 65 39 70 4 6 16 30 25 54 10 25 26 57 37 72 37 52 12 99 -52 99 -28 0 -39
-7 -60 -38 -14 -20 -32 -53 -39 -72 -18 -44 -72 -141 -138 -248 -29 -46 -52
-86 -52 -89 0 -5 -220 -322 -242 -347 -76 -91 -212 -277 -304 -413 -63 -95
-135 -193 -160 -219 -24 -26 -44 -55 -44 -66 0 -10 -2 -18 -5 -18 -3 0 -35 25
-70 55 -70 59 -101 67 -129 36 -21 -23 -11 -48 31 -81 16 -12 79 -70 142 -128
63 -59 122 -113 133 -120 23 -17 58 -12 71 9 11 18 2 69 -14 69 -5 0 -32 24
-59 53 l-48 52 26 7 c38 11 119 94 159 166 19 34 40 68 47 75 6 7 42 57 79
112 37 55 94 134 127 175 33 41 86 111 117 155 100 139 158 214 164 215 11 0
18 -66 39 -355 11 -154 24 -316 30 -361 5 -44 10 -197 10 -340 0 -142 4 -324
10 -404 5 -80 14 -233 20 -341 5 -107 12 -203 16 -212 10 -28 -13 -20 -88 31
-79 52 -99 64 -281 170 -69 39 -129 72 -132 72 -7 0 -135 108 -225 189 l-55
49 23 40 c12 22 22 49 22 60 0 28 -25 45 -55 38 -19 -5 -35 -27 -71 -99 -63
-124 -107 -193 -161 -249 -37 -38 -44 -51 -39 -71 18 -73 103 -22 193 116 24
37 47 67 51 67 4 -1 32 -23 62 -51 101 -93 184 -155 265 -199 44 -24 110 -63
146 -86 37 -23 86 -52 110 -65 24 -12 67 -39 95 -60 29 -21 72 -49 96 -63 l43
-24 8 -168 c18 -380 -5 -502 -125 -669 -51 -70 -112 -100 -188 -91 -152 18
-236 43 -295 89 -56 43 -225 240 -225 263 0 3 16 26 35 51 42 55 43 66 10 99
-40 40 -71 30 -128 -41 -54 -67 -147 -244 -147 -281 0 -28 36 -64 65 -64 27 0
56 33 80 90 31 74 25 75 95 -14 154 -198 255 -252 503 -273 76 -6 157 14 202
49 36 28 136 182 159 243 46 125 49 150 48 408 0 136 1 247 2 247 11 0 169
-100 206 -131 41 -33 179 -117 240 -145 99 -46 165 -75 211 -95 30 -12 59 -26
65 -31 32 -24 280 -150 429 -218 157 -72 203 -97 265 -144 85 -65 194 -126
222 -126 38 1 60 24 56 61 -3 28 -11 37 -76 73 -53 29 -74 47 -79 66 -3 14
-18 52 -33 85 -29 63 -41 95 -37 95 2 0 22 -9 45 -20 42 -20 82 -26 82 -12 0
4 -14 27 -31 50 -17 24 -48 73 -68 111 -20 37 -52 92 -72 122 -29 44 -39 72
-52 149 -27 156 -37 294 -37 495 -1 105 -5 224 -10 265 -5 41 -9 503 -9 1025
0 1007 4 1347 14 1434 5 37 3 51 -4 47 -8 -5 -11 16 -11 68 0 41 5 78 10 81
17 11 11 35 -9 35 -20 0 -31 19 -31 55 0 15 -7 25 -22 29 -20 5 -21 8 -8 17
13 9 13 10 -1 6 -9 -3 -29 1 -44 9 -35 18 -35 18 -35 -5z m-12 -463 c7 -128
15 -260 17 -293 3 -33 9 -449 14 -925 10 -863 27 -1599 40 -1717 4 -35 3 -63
-1 -63 -10 0 -113 124 -149 179 -16 25 -29 53 -29 63 0 27 -114 195 -191 281
-15 16 -33 41 -40 55 -8 15 -16 29 -19 32 -3 3 -16 25 -30 50 -13 25 -39 65
-57 89 -19 24 -41 58 -50 75 -9 17 -40 67 -69 112 -30 45 -54 88 -54 96 0 8
-17 48 -39 89 -21 41 -62 119 -90 174 -29 55 -70 127 -91 160 -56 89 -60 140
-20 252 18 48 57 140 87 203 75 156 70 142 108 290 10 36 23 70 31 76 7 6 27
50 45 97 19 54 56 124 96 185 36 53 69 99 72 102 4 3 15 19 25 35 11 17 56 80
101 140 103 138 141 194 149 221 3 11 25 45 47 75 22 30 45 64 50 77 5 12 14
22 22 22 10 0 16 -53 25 -232z m-569 17 c-5 -19 -13 -52 -19 -72 -9 -35 -22
-113 -52 -298 -6 -38 -26 -103 -44 -144 -19 -41 -34 -82 -34 -92 0 -37 -90
-278 -151 -404 -36 -75 -79 -214 -79 -257 0 -14 -6 -18 -21 -16 -15 2 -28 22
-50 73 -16 38 -29 74 -29 79 0 13 -70 148 -86 167 -16 18 -84 211 -84 237 0 9
55 70 123 137 90 88 145 152 204 240 91 134 179 241 267 327 33 32 61 58 62
58 1 0 -2 -16 -7 -35z m-608 -1080 c17 -44 49 -118 71 -165 46 -96 64 -136
107 -232 16 -37 45 -91 63 -120 75 -116 98 -156 134 -233 20 -44 67 -146 105
-226 38 -80 69 -150 69 -156 0 -6 32 -59 70 -117 39 -59 70 -109 70 -112 0
-18 110 -163 160 -211 33 -31 60 -62 60 -69 0 -20 81 -167 120 -219 21 -27 84
-106 140 -175 56 -69 106 -134 112 -144 6 -11 11 -56 11 -99 0 -56 7 -102 22
-151 13 -39 21 -74 18 -78 -14 -25 -74 0 -169 73 -27 21 -66 45 -85 54 -18 8
-70 35 -114 60 -82 46 -345 176 -425 210 -25 11 -47 22 -50 26 -9 11 -232 154
-302 192 -36 20 -76 37 -88 37 -11 0 -34 7 -49 14 -33 17 -34 25 -51 316 -5
102 -15 255 -22 340 -6 85 -12 279 -14 430 -2 246 -12 459 -30 621 -4 37 -2
59 5 63 7 4 11 41 11 94 0 99 4 97 51 -23z"/>
<path d="M3094 3309 c-13 -14 -19 -40 -22 -87 -3 -63 -43 -185 -103 -317 -22
-49 -42 -97 -64 -153 -25 -61 -16 -140 24 -232 93 -210 72 -168 239 -480 44
-83 54 -94 100 -109 49 -17 70 -12 93 19 16 21 17 31 9 60 -14 45 -38 257 -45
391 -10 216 -18 304 -27 310 -4 3 -11 77 -13 166 -3 88 -10 175 -15 193 -5 18
-12 66 -16 107 -4 41 -12 79 -18 84 -6 4 -27 22 -47 39 -43 35 -69 38 -95 9z
m56 -333 c0 -30 4 -56 8 -58 8 -3 28 -115 58 -313 8 -55 24 -152 35 -215 13
-73 19 -146 17 -200 l-3 -85 -39 75 c-21 41 -47 89 -57 107 -42 74 -56 100
-74 143 -10 25 -32 74 -49 110 -34 71 -40 152 -18 220 22 67 70 255 67 260 -2
3 10 7 26 8 29 2 29 2 29 -52z"/>
<path d="M2505 3677 c-29 -45 -75 -171 -75 -206 0 -45 14 -61 55 -61 39 0 58
20 78 81 9 25 28 71 43 101 30 62 27 88 -10 88 -14 0 -36 4 -50 10 -22 8 -28
6 -41 -13z"/>
<path d="M2546 2008 c-31 -74 -91 -368 -82 -404 14 -54 189 -206 293 -254 84
-39 132 -51 215 -53 59 -2 72 1 84 17 8 11 14 27 14 37 0 15 -113 197 -131
209 -3 3 -35 50 -69 105 -35 55 -97 152 -139 215 -42 63 -81 124 -87 135 -7
13 -24 21 -47 23 -33 3 -38 0 -51 -30z m102 -176 c2 -31 17 -66 55 -125 28
-45 57 -88 64 -95 7 -7 13 -17 13 -22 0 -4 25 -42 55 -84 60 -84 56 -92 -27
-50 -64 33 -141 89 -191 141 l-37 39 4 85 c5 105 21 161 44 157 12 -2 18 -15
20 -46z"/>
</g>
</svg>
